<svg width="116" height="68" viewBox="0 0 116 68" fill="none" xmlns="http://www.w3.org/2000/svg">
<g filter="url(#filter0_d_50701_134)">
<path d="M50.9727 25.0333C50.9179 25.0163 50.8647 24.9961 50.8136 24.9717C35.5438 19.2363 28.4351 29.939 28.4137 29.97C28.2636 30.1886 28.0431 30.3617 27.7715 30.4493L9.64128 36.3053C8.61609 36.6366 7.78259 37.2824 7.22857 38.1124C6.67661 38.9391 6.40041 39.9579 6.48656 41.0387L7.6618 55.7977C7.6886 56.1291 7.78754 56.4266 7.94995 56.6757C8.1136 56.9269 8.3465 57.1384 8.63834 57.2958C8.93349 57.4541 9.23771 57.5326 9.53491 57.5305C9.82718 57.5289 10.1302 57.4458 10.4265 57.2814L10.4274 57.283L28.7204 47.1298C28.9129 47.0195 29.1371 46.9596 29.375 46.9683C29.4203 46.9699 45.2149 47.5802 51.1092 48.6874C56.3398 49.6703 58.5584 47.7454 58.565 47.7401L58.5662 47.7417C58.6276 47.6905 58.6948 47.6442 58.7678 47.6045L76.4474 37.9756L51.8784 37.9756V37.9723C51.7696 37.9723 51.6595 37.9579 51.5499 37.9273C50.6199 37.6678 50.0016 37.0316 49.6887 36.2784C49.5061 35.8388 49.431 35.3587 49.4628 34.8956C49.4949 34.4188 49.6421 33.9474 49.9018 33.5396C50.2835 32.9401 50.8845 32.4948 51.6978 32.3712L67.5798 27.4072C68.4471 27.1362 68.9883 26.3979 69.1524 25.5885C69.2262 25.2241 69.2241 24.8453 69.1413 24.4871C69.0654 24.1578 68.9166 23.8483 68.6915 23.5918C68.1725 22.9997 67.1985 22.6684 65.6885 22.9378L52.237 25.3373V25.3353C52.0181 25.3737 51.7869 25.3539 51.5659 25.265C51.3664 25.1845 51.1694 25.1084 50.9727 25.0333ZM50.1005 22.111L50.1005 5.86386C50.1005 4.25009 50.7584 2.78381 51.8182 1.7216C52.8776 0.65939 54.3406 0 55.9511 0L106.149 0C107.76 0 109.222 0.65939 110.282 1.7216C111.342 2.78381 112 4.25009 112 5.86386V32.1118C112 33.726 111.342 35.1922 110.282 36.254C109.222 37.3162 107.76 37.9756 106.149 37.9756L81.6084 37.9756L60.0473 49.7182C59.4669 50.1558 56.3872 52.1947 50.6549 51.1176C45.416 50.1334 31.9283 49.5455 29.6268 49.4509L11.6137 59.4483L11.615 59.4504C10.9624 59.8119 10.2588 59.9954 9.5444 59.9999C8.83498 60.0045 8.12967 59.8293 7.46971 59.4744C6.80521 59.1166 6.26933 58.6249 5.88226 58.0312C5.49353 57.4351 5.25857 56.7443 5.19839 55.9915L4.02316 41.2325C3.89207 39.5882 4.32283 38.0227 5.18066 36.7374C6.03642 35.455 7.31719 34.4597 8.88733 33.9524L26.6337 28.2203C28.0905 26.3136 35.7499 17.5246 50.1005 22.111ZM81.293 35.4967H81.3038L106.149 35.4967C107.076 35.4967 107.921 35.1154 108.534 34.5014C109.146 33.8875 109.527 33.0414 109.527 32.1118V13.1068L52.5738 13.1068L52.5738 22.7613L65.2635 20.4973C67.7521 20.0535 69.4987 20.7609 70.5465 21.9557C71.0494 22.5291 71.3804 23.2121 71.547 23.9351C71.6187 24.2446 71.6587 24.5623 71.669 24.882H75.3517C75.6931 24.882 75.9701 25.1597 75.9701 25.5018C75.9701 25.8439 75.6931 26.1215 75.3517 26.1215H71.5573C71.3648 27.0267 70.9307 27.8877 70.272 28.5678C70.3585 28.6744 70.4105 28.8103 70.4105 28.9582C70.4105 29.3003 70.1335 29.5779 69.7922 29.5779H68.8243C68.661 29.6502 68.4908 29.7147 68.3139 29.7696L52.3388 34.7634C52.2469 34.7919 52.155 34.8092 52.0631 34.8163C52.021 34.8249 51.9934 34.8435 51.979 34.8663C51.9493 34.9125 51.9316 34.9807 51.9262 35.06C51.92 35.1526 51.934 35.2464 51.9687 35.3294C51.9963 35.3959 52.0408 35.455 52.1018 35.4967L81.293 35.4967ZM96.9981 23.4567C97.9133 23.4567 98.7748 23.6872 99.5275 24.0938C99.8305 23.9314 100.154 23.7963 100.493 23.6926C100.993 23.5393 101.518 23.4567 102.054 23.4567C103.529 23.4567 104.864 24.0562 105.831 25.025C106.797 25.9938 107.396 27.3324 107.396 28.8103C107.396 30.2885 106.797 31.6272 105.831 32.5964C104.864 33.5652 103.529 34.1647 102.054 34.1647C101.518 34.1647 100.993 34.0821 100.493 33.9288C100.154 33.8247 99.8305 33.69 99.5275 33.5276C98.7748 33.9342 97.9133 34.1647 96.9981 34.1647C95.5232 34.1647 94.1876 33.5652 93.221 32.5964C92.2543 31.6276 91.6562 30.289 91.6562 28.8107C91.6562 27.3324 92.2543 25.9938 93.221 25.025C94.1876 24.0557 95.5232 23.4567 96.9981 23.4567ZM100.996 25.2597C101.832 26.205 102.34 27.4485 102.34 28.8107C102.34 30.1729 101.832 31.4164 100.996 32.3617C101.325 32.4592 101.679 32.5117 102.054 32.5117C103.074 32.5117 103.997 32.0977 104.665 31.428C105.333 30.7583 105.747 29.8328 105.747 28.8103C105.747 27.7881 105.333 26.8627 104.665 26.1934C103.997 25.5237 103.074 25.1093 102.054 25.1093C101.679 25.1093 101.325 25.1622 100.996 25.2597ZM99.61 26.1934C98.9418 25.5237 98.0184 25.1093 96.9981 25.1093C95.9783 25.1093 95.0549 25.5237 94.3867 26.1934C93.7185 26.8631 93.3051 27.7882 93.3051 28.8107C93.3051 29.8328 93.7185 30.7583 94.3867 31.428C95.0549 32.0977 95.9783 32.5121 96.9981 32.5121C98.0184 32.5121 98.9418 32.0977 99.61 31.428C100.278 30.7583 100.691 29.8328 100.691 28.8107C100.691 27.7882 100.278 26.8631 99.61 26.1934ZM72.6039 29.5779C72.2626 29.5779 71.9856 29.3003 71.9856 28.9582C71.9856 28.6157 72.2626 28.3385 72.6039 28.3385H74.714C75.0554 28.3385 75.3324 28.6157 75.3324 28.9582C75.3324 29.3003 75.0554 29.5779 74.714 29.5779H72.6039ZM96.5942 19.0459C96.2524 19.0459 95.9758 18.7682 95.9758 18.4261C95.9758 18.084 96.2524 17.8064 96.5942 17.8064L104.553 17.8064C104.895 17.8064 105.171 18.084 105.171 18.4261C105.171 18.7682 104.895 19.0459 104.553 19.0459L96.5942 19.0459ZM78.4079 19.0459C78.0666 19.0459 77.7896 18.7682 77.7896 18.4261C77.7896 18.084 78.0666 17.8064 78.4079 17.8064L89.901 17.8064C90.2423 17.8064 90.5193 18.084 90.5193 18.4261C90.5193 18.7682 90.2423 19.0459 89.901 19.0459L78.4079 19.0459ZM54.9787 19.0459C54.6374 19.0459 54.3604 18.7682 54.3604 18.4261C54.3604 18.084 54.6374 17.8064 54.9787 17.8064L71.7564 17.8064C72.0981 17.8064 72.3747 18.084 72.3747 18.4261C72.3747 18.7682 72.0981 19.0459 71.7564 19.0459L54.9787 19.0459ZM109.527 11.4542V6.69016L52.5738 6.69016V11.4542L109.527 11.4542ZM109.424 5.03756C109.272 4.43766 108.959 3.90015 108.534 3.47419C107.921 2.86025 107.076 2.47891 106.149 2.47891L55.9511 2.47891C55.0236 2.47891 54.1794 2.86025 53.5668 3.47419C53.1418 3.90015 52.8286 4.43766 52.6764 5.03756L109.424 5.03756Z" fill="#333B41"/>
</g>
<defs>
<filter id="filter0_d_50701_134" x="0" y="0" width="116" height="68" filterUnits="userSpaceOnUse" color-interpolation-filters="sRGB">
<feFlood flood-opacity="0" result="BackgroundImageFix"/>
<feColorMatrix in="SourceAlpha" type="matrix" values="0 0 0 0 0 0 0 0 0 0 0 0 0 0 0 0 0 0 127 0" result="hardAlpha"/>
<feOffset dy="4"/>
<feGaussianBlur stdDeviation="2"/>
<feComposite in2="hardAlpha" operator="out"/>
<feColorMatrix type="matrix" values="0 0 0 0 0 0 0 0 0 0 0 0 0 0 0 0 0 0 0.25 0"/>
<feBlend mode="normal" in2="BackgroundImageFix" result="effect1_dropShadow_50701_134"/>
<feBlend mode="normal" in="SourceGraphic" in2="effect1_dropShadow_50701_134" result="shape"/>
</filter>
</defs>
</svg>
